<svg xmlns="http://www.w3.org/2000/svg" xmlns:xlink="http://www.w3.org/1999/xlink" version="1.1" x="0px" y="0px" viewBox="0 0 100 125" style="enable-background:new 0 0 100 100;" xml:space="preserve"><g><path d="M34.53,73.82L34.53,73.82c-0.01,0.01-0.03,0.03-0.04,0.04C34.51,73.85,34.52,73.83,34.53,73.82z"/><path d="M22.64,75.4c0.01,0,0.02,0,0.04,0c0.04,0,0.08,0,0.11,0C22.74,75.4,22.69,75.4,22.64,75.4z"/><path d="M84.13,36.35c0.01,0,0.02-0.01,0.04-0.01c0.03-0.01,0.07-0.02,0.1-0.03C84.22,36.33,84.18,36.34,84.13,36.35z"/><path d="M93.67,42.07c0-0.26-0.03-0.51-0.06-0.77c-0.03-0.21-0.15-0.38-0.31-0.5c-0.03-0.44-0.11-0.87-0.25-1.28   c-0.08-0.22-0.15-0.44-0.22-0.65c-0.05-0.15-0.13-0.29-0.22-0.42c-0.08-0.12-0.18-0.22-0.29-0.32C92.2,38,92.1,37.87,92,37.73   c-0.07-0.13-0.15-0.26-0.24-0.37c-0.12-0.14-0.25-0.25-0.4-0.35c-0.22-0.14-0.46-0.26-0.69-0.38c-0.21-0.13-0.42-0.28-0.64-0.36   c-0.31-0.12-0.63-0.17-0.95-0.23c-0.22-0.04-0.44-0.09-0.65-0.13c-0.32-0.07-0.64-0.08-0.97-0.08c-0.25,0-0.51,0.02-0.76,0.04   c-0.27,0.02-0.53,0.04-0.8,0.07c-0.59,0.08-1.16,0.23-1.73,0.4c-0.32,0.09-0.64,0.18-0.96,0.31c-0.03,0.01-0.05,0.03-0.08,0.04   c0.11-0.16,0.22-0.31,0.34-0.47c0.29-0.36,0.59-0.71,0.9-1.05c0.24-0.26,0.44-0.55,0.68-0.82c0.21-0.2,0.41-0.4,0.59-0.63   c0.14-0.18,0.26-0.37,0.38-0.56c0.21-0.31,0.48-0.58,0.71-0.87c0.07-0.09,0.11-0.2,0.13-0.31c0.15-0.12,0.27-0.28,0.28-0.48   c0.01-0.2,0.02-0.4,0.02-0.61c0-0.17-0.01-0.34-0.02-0.51c-0.01-0.32-0.03-0.64-0.04-0.96v-0.01c0-0.01,0-0.03,0-0.04   c0-0.38-0.01-0.77-0.02-1.15c0.01-0.48,0.03-0.97,0.04-1.45c0-0.22-0.02-0.4-0.16-0.58c-0.12-0.16-0.31-0.26-0.5-0.29   c-0.03,0-0.07-0.01-0.1-0.01c-0.14,0-0.28,0.05-0.4,0.12c-0.16-0.02-0.31-0.03-0.47-0.05c-0.36-0.05-0.72-0.1-1.08-0.13   c-0.36-0.02-0.72-0.04-1.09-0.07c-0.39-0.03-0.78-0.1-1.17-0.15c-0.35-0.04-0.7-0.06-1.06-0.09s-0.73-0.08-1.09-0.14   c-0.37-0.06-0.75-0.11-1.12-0.18c-0.36-0.07-0.73-0.14-1.1-0.2s-0.74-0.11-1.11-0.16c-0.39-0.05-0.78-0.11-1.17-0.16   c-0.78-0.1-1.56-0.15-2.34-0.21c-1.62-0.12-3.23-0.34-4.85-0.46c-1.64-0.12-3.28-0.14-4.93-0.18c-1.64-0.04-3.27-0.11-4.91-0.16   c-0.8-0.02-1.61-0.04-2.41-0.09c-0.81-0.04-1.62-0.07-2.44-0.08c-0.79-0.01-1.59,0-2.38-0.02c-0.84-0.02-1.68-0.08-2.52-0.15   c-0.57-0.05-1.15-0.09-1.72-0.11c-0.15,0-0.29-0.01-0.44-0.01c-0.21,0-0.4,0-0.58,0.02c-0.14-0.12-0.32-0.19-0.5-0.19   c-0.1-0.01-0.2,0.01-0.3,0.05c-0.3,0.13-0.58,0.34-0.86,0.51c-0.02,0.01-0.04,0.03-0.07,0.04c-0.08,0.05-0.17,0.1-0.25,0.15   c-0.43,0.26-0.84,0.54-1.27,0.81c-0.45,0.29-0.9,0.57-1.35,0.85c-0.06,0.03-0.12,0.06-0.17,0.1c-0.64,0.38-1.27,0.77-1.88,1.19   c-0.7,0.47-1.39,0.96-2.11,1.42c-0.66,0.42-1.32,0.85-1.95,1.32s-1.26,0.94-1.9,1.39c-0.67,0.48-1.36,0.94-2.03,1.41   c-0.65,0.46-1.29,0.93-1.94,1.39c-0.68,0.48-1.38,0.94-2.07,1.43c-0.7,0.5-1.4,1.01-2.1,1.51c-0.67,0.48-1.35,0.95-2.03,1.43   c-0.66,0.48-1.33,0.94-1.97,1.45c-1.3,1.03-2.59,2.07-3.89,3.11c-1.25,1-2.47,2.04-3.71,3.06c-0.61,0.5-1.22,1.01-1.83,1.51   c-0.62,0.51-1.25,1.01-1.85,1.54c-0.53,0.46-1.06,0.93-1.61,1.36c-0.58,0.45-1.08,0.98-1.58,1.52c-0.08,0.09-0.12,0.22-0.14,0.35   c-0.2,0.17-0.32,0.41-0.27,0.68c0.09,0.48,0.19,0.94,0.35,1.4c0.14,0.4,0.28,0.8,0.41,1.21c0.22,0.7,0.46,1.39,0.67,2.1   c0.09,0.36,0.17,0.73,0.26,1.1c0.05,0.21,0.12,0.37,0.3,0.51c0.16,0.12,0.37,0.18,0.57,0.15c0.17-0.02,0.32-0.11,0.43-0.23   c0.06,0,0.11,0.01,0.17,0.01c0.3,0.02,0.61,0.01,0.91,0.01c0.4,0,0.8-0.02,1.21-0.02c0.18,0,0.35,0,0.53,0.01   c0.29,0.01,0.59,0.01,0.88,0c0.39-0.01,0.77-0.03,1.16-0.03c0.33,0,0.66,0.03,0.99,0.07c0.32,0.04,0.63,0.06,0.94,0.13   c0.3,0.06,0.59,0.14,0.89,0.18c0.09,0.01,0.18,0.02,0.27,0.03c-0.31,0.11-0.62,0.25-0.93,0.38c-0.35,0.14-0.69,0.29-1.03,0.46   c-0.32,0.16-0.64,0.32-0.96,0.48c-0.37,0.19-0.73,0.41-1.08,0.63c-0.54,0.34-1.03,0.76-1.51,1.19c-0.42,0.38-0.82,0.8-1.16,1.25   c-0.35,0.47-0.57,1.03-0.7,1.6c-0.05,0.23-0.12,0.46-0.13,0.7c-0.01,0.14-0.01,0.28,0,0.42c-0.21,0.22-0.29,0.55-0.17,0.84   c0.19,0.43,0.33,0.88,0.47,1.33c0.14,0.47,0.31,0.94,0.45,1.41c0.07,0.25,0.14,0.5,0.23,0.74c0.1,0.27,0.22,0.53,0.32,0.8   c0.1,0.26,0.19,0.52,0.3,0.78c0.05,0.12,0.1,0.24,0.15,0.36c0.01,0.03,0.04,0.06,0.05,0.09c-0.03,0.15-0.02,0.31,0.03,0.46   c0.1,0.3,0.19,0.61,0.41,0.84c0.19,0.21,0.43,0.34,0.67,0.47c0.16,0.1,0.32,0.21,0.46,0.34c0.11,0.11,0.22,0.22,0.34,0.32   c0.2,0.15,0.42,0.27,0.66,0.34c0.14,0.05,0.29,0.08,0.44,0.13c0.18,0.07,0.35,0.16,0.52,0.25c0.16,0.08,0.31,0.16,0.47,0.21   c0.22,0.08,0.45,0.13,0.68,0.18c0.36,0.08,0.74,0.11,1.11,0.16c0.3,0.04,0.6,0.12,0.9,0.19c0.35,0.09,0.7,0.12,1.06,0.14   c0.33,0.02,0.66,0.04,0.99,0.08c0.16,0.02,0.32,0.04,0.47,0.06c0.19,0.03,0.38,0.02,0.58,0.03c0.42,0,0.83-0.01,1.25-0.01   c0.38,0.01,0.75,0.03,1.13,0.03c0.36,0,0.71-0.01,1.07-0.03c0.31-0.02,0.62-0.05,0.94-0.07c0.37-0.02,0.73-0.06,1.1-0.1   c0.66-0.07,1.3-0.16,1.94-0.32c0.72-0.18,1.44-0.33,2.15-0.55c0.64-0.2,1.27-0.42,1.86-0.73c0.32-0.17,0.64-0.37,0.93-0.6   c0.28-0.22,0.53-0.46,0.78-0.71c0.24-0.24,0.48-0.48,0.69-0.74c0.32-0.4,0.42-0.9,0.45-1.39c0-0.03-0.01-0.05-0.01-0.08   c0.07-0.1,0.13-0.21,0.15-0.33c0.06-0.39,0.08-0.78,0.13-1.17c0.02-0.19,0.06-0.38,0.07-0.57c0.01-0.22-0.01-0.43-0.02-0.65   c0.01-0.19,0.03-0.38,0.05-0.58c0.03-0.21,0.04-0.42,0.08-0.63c0.1-0.3,0.21-0.6,0.26-0.91c0.04-0.27,0.04-0.54,0.1-0.8   c0.06-0.19,0.12-0.37,0.19-0.56c0.1-0.26,0.15-0.53,0.22-0.79c0.07-0.22,0.16-0.43,0.26-0.64c0.12-0.19,0.26-0.35,0.41-0.51   c0.25-0.25,0.53-0.47,0.83-0.65c0.17-0.1,0.36-0.17,0.54-0.24c0.08,0.13,0.2,0.24,0.34,0.3c0.19,0.08,0.37,0.07,0.55,0.01   c0.65-0.13,1.32-0.15,1.97-0.2c0.41-0.03,0.83-0.07,1.25-0.09c0.09,0.07,0.18,0.13,0.28,0.18c0.23,0.1,0.49,0.15,0.74,0.19   c0.36,0.06,0.72,0.1,1.08,0.16c0.35,0.05,0.7,0.16,1.06,0.23c0.35,0.07,0.71,0.12,1.06,0.16c0.38,0.04,0.77,0.06,1.15,0.1   c0.31,0.03,0.62,0.09,0.93,0.15c0.72,0.14,1.46,0.13,2.19,0.2c0.66,0.06,1.31,0.12,1.97,0.16c0.31,0.02,0.63,0.05,0.94,0.07   c0.33,0.02,0.66,0.04,0.98,0.09c0.16,0.02,0.31,0.06,0.47,0.09c0.18,0.03,0.36,0.05,0.54,0.07c0.32,0.03,0.64,0.1,0.97,0.12   c0.3,0.02,0.59,0.06,0.88,0.1c0.34,0.04,0.69,0.04,1.04,0.08c0.31,0.04,0.6-0.11,0.76-0.36c0.17,0,0.34-0.04,0.49-0.15   c0.28-0.19,0.55-0.39,0.82-0.6c0.3-0.24,0.57-0.53,0.84-0.8c0.03-0.03,0.07-0.07,0.1-0.1c0.05-0.05,0.1-0.1,0.16-0.16   c0.29-0.29,0.6-0.56,0.9-0.85c-0.02,0.02-0.04,0.04-0.06,0.07c0.03-0.03,0.05-0.05,0.07-0.08l0.01-0.01l0,0   c0.02-0.02,0.03-0.03,0.05-0.05c-0.02,0.02-0.04,0.04-0.05,0.05c0.14-0.15,0.28-0.3,0.42-0.44c0.22-0.22,0.46-0.42,0.67-0.65   c0.17-0.18,0.33-0.37,0.5-0.55c0.14-0.13,0.28-0.24,0.43-0.36c0.17-0.14,0.33-0.3,0.48-0.46c0.26-0.25,0.55-0.49,0.82-0.74   c0.25-0.23,0.5-0.48,0.78-0.68c0.1-0.05,0.19-0.08,0.29-0.11c-0.01,0.02-0.01,0.05-0.01,0.07c0.12-0.05,0.23-0.09,0.35-0.13   c0.22-0.07,0.43-0.16,0.65-0.23c0.08-0.02,0.16-0.03,0.25-0.03c0.34,0.01,0.69,0.02,1.03,0.03s0.68,0.06,1.01,0.14   c0.17,0.05,0.33,0.12,0.49,0.2c0.41,0.25,0.8,0.52,1.15,0.85c0.15,0.15,0.3,0.3,0.48,0.43c0.17,0.12,0.34,0.22,0.5,0.35   c0.2,0.16,0.42,0.3,0.66,0.4c0.21,0.09,0.42,0.16,0.62,0.26c0.28,0.16,0.55,0.3,0.86,0.4c0.32,0.1,0.62,0.22,0.93,0.34   c0.72,0.28,1.45,0.48,2.22,0.57c0.4,0.05,0.8,0.04,1.2,0.02c0.37-0.01,0.74-0.03,1.1-0.06c0.81-0.09,1.56-0.36,2.33-0.62   c0.5-0.17,0.99-0.37,1.46-0.61c0.27-0.14,0.52-0.3,0.77-0.47c0.21-0.13,0.42-0.26,0.63-0.4c0.18-0.12,0.34-0.25,0.5-0.38   c0.23-0.18,0.45-0.37,0.65-0.57c0.49-0.49,0.95-1.02,1.41-1.55c0.09-0.1,0.13-0.22,0.14-0.35c0.17-0.18,0.33-0.37,0.48-0.57   c0.2-0.26,0.41-0.51,0.62-0.77c0.37-0.46,0.65-0.98,0.93-1.49c0.2-0.34,0.42-0.68,0.61-1.03c0.19-0.34,0.37-0.67,0.54-1.02   c0.17-0.34,0.34-0.68,0.5-1.03c0.12-0.26,0.22-0.53,0.36-0.79c0,0,0,0,0,0.01c0.08-0.14,0.14-0.26,0.18-0.43   c0.03-0.16,0.03-0.33,0.04-0.49c0.01-0.39,0.03-0.77,0.05-1.16c0.02-0.39,0.06-0.78,0.09-1.16c0.02-0.28,0.02-0.56,0-0.83   c-0.01-0.19-0.04-0.38-0.05-0.58c0.02-0.33,0.08-0.65,0.11-0.98c0.04-0.41,0.03-0.82,0.01-1.23   C93.66,42.57,93.67,42.32,93.67,42.07z M44.01,23.79c0.05-0.03,0.09-0.06,0.14-0.09c-0.06,0.04-0.11,0.07-0.17,0.11   C43.99,23.8,44,23.8,44.01,23.79z M58.45,63.13c-0.14-0.02-0.28-0.05-0.42-0.06c-0.18-0.02-0.37-0.03-0.55-0.04   c-0.34-0.03-0.67-0.1-1.01-0.13c-0.37-0.04-0.73-0.13-1.1-0.17c-0.32-0.03-0.64-0.05-0.97-0.07c-0.34-0.02-0.68-0.05-1.02-0.07   c-0.73-0.04-1.46-0.14-2.19-0.18c-0.31-0.02-0.62-0.03-0.93-0.06c-0.31-0.03-0.61-0.08-0.91-0.14c-0.6-0.12-1.2-0.15-1.8-0.21   c-0.64-0.06-1.26-0.19-1.88-0.33c-0.52-0.12-1.05-0.15-1.57-0.25c-0.12-0.18-0.35-0.31-0.56-0.34c-0.07-0.01-0.15-0.02-0.22-0.02   c-0.15-0.01-0.29,0.01-0.43,0.01c-0.32,0.02-0.64,0.04-0.96,0.07c-0.06,0-0.12,0.01-0.17,0.01c0.01-0.01,0.02-0.02,0.02-0.02   c-0.01,0-0.02,0-0.03,0c0.04-0.04,0.08-0.07,0.12-0.11c-0.22,0.02-0.43,0.03-0.65,0.04c-0.27-0.01-0.53-0.02-0.79-0.07   c-0.13-0.02-0.26-0.05-0.39-0.08c-0.2-0.03-0.38-0.04-0.58-0.04c-0.01,0.01-0.04,0.01-0.07,0.01c-0.32,0-0.66,0.11-0.95,0.23   c-0.36,0.14-0.69,0.33-1.01,0.52c-0.25,0.15-0.47,0.33-0.68,0.52c-0.15,0.13-0.28,0.28-0.42,0.42c-0.11,0.11-0.21,0.22-0.3,0.34   c-0.18,0.26-0.33,0.54-0.46,0.83c-0.11,0.28-0.17,0.57-0.24,0.86c-0.12,0.37-0.27,0.73-0.36,1.1c-0.08,0.34-0.07,0.69-0.15,1.03   c-0.07,0.22-0.15,0.45-0.21,0.68c-0.05,0.22-0.07,0.44-0.1,0.66c-0.02,0.21-0.05,0.42-0.06,0.63c-0.01,0.23,0.02,0.45,0.02,0.67   c-0.02,0.26-0.06,0.52-0.09,0.77c-0.03,0.31-0.05,0.62-0.1,0.93c-0.01,0.04,0.01,0.08,0.01,0.13c-0.07,0.1-0.13,0.21-0.14,0.34   c-0.01,0.17-0.03,0.34-0.06,0.51c-0.01,0.03-0.03,0.06-0.04,0.09c-0.12,0.18-0.28,0.33-0.44,0.49c-0.03,0.03-0.07,0.07-0.1,0.1   c-0.01,0.01-0.02,0.02-0.03,0.03c-0.05,0.05-0.1,0.1-0.15,0.15c-0.29,0.29-0.62,0.55-0.97,0.76c-0.67,0.36-1.39,0.63-2.12,0.84   c-0.54,0.14-1.08,0.27-1.62,0.4s-1.08,0.21-1.64,0.28c-0.3,0.04-0.6,0.07-0.89,0.1c-0.29,0.03-0.59,0.03-0.89,0.06   c-0.54,0.05-1.09,0.07-1.64,0.08c-0.3-0.01-0.59-0.03-0.88-0.03c-0.28,0-0.55,0.01-0.84,0.01c-0.22,0-0.43,0-0.65-0.01   c-0.24-0.01-0.48-0.06-0.72-0.09c-0.22-0.03-0.44-0.05-0.65-0.06c-0.27-0.02-0.53-0.02-0.8-0.05c-0.44-0.06-0.87-0.2-1.31-0.27   c-0.48-0.08-0.96-0.12-1.44-0.23c-0.12-0.04-0.24-0.08-0.35-0.14c-0.18-0.09-0.36-0.19-0.55-0.28c-0.27-0.13-0.58-0.18-0.86-0.3   c-0.07-0.05-0.13-0.1-0.2-0.16c-0.15-0.15-0.3-0.29-0.47-0.42c-0.16-0.12-0.34-0.22-0.53-0.32c0.14-0.32,0.08-0.73-0.22-0.92   c-0.03-0.02-0.06-0.04-0.09-0.07c-0.19-0.39-0.34-0.82-0.49-1.23c-0.13-0.37-0.29-0.73-0.42-1.1c0.04,0.04,0.09,0.07,0.14,0.11   c0.27,0.26,0.59,0.45,0.93,0.6c0.26,0.11,0.52,0.21,0.77,0.35c0.3,0.18,0.6,0.38,0.92,0.52c0.26,0.11,0.56,0.16,0.84,0.22   c0.16,0.03,0.31,0.06,0.47,0.1c0.27,0.08,0.53,0.19,0.79,0.31c0.34,0.14,0.72,0.22,1.09,0.28c0.31,0.05,0.63,0.08,0.94,0.13   c0.33,0.05,0.65,0.15,0.98,0.19c0.31,0.03,0.62,0.03,0.94,0.04c0.31,0.01,0.62,0.06,0.93,0.09c0.38,0.04,0.77,0.02,1.16,0   c0.29-0.01,0.59-0.02,0.88-0.02c0.4,0.01,0.79,0.01,1.18-0.04c0.36-0.04,0.72-0.13,1.08-0.2c0.33-0.06,0.65-0.12,0.97-0.2   c0.36-0.09,0.71-0.18,1.07-0.27c0.35-0.09,0.7-0.17,1.05-0.27c0.32-0.09,0.64-0.2,0.95-0.33c0.36-0.15,0.7-0.35,1.03-0.56   c0.3-0.19,0.59-0.43,0.84-0.68c0.18-0.18,0.34-0.36,0.49-0.57c0.11-0.15,0.22-0.3,0.33-0.45c0.11-0.14,0.23-0.28,0.33-0.43   c0.15-0.21,0.28-0.45,0.4-0.68c0.21-0.42,0.4-0.86,0.52-1.32c0.1-0.36,0.16-0.73,0.24-1.09c0.06-0.21,0.12-0.42,0.14-0.64   c0.03-0.21,0.01-0.43,0.03-0.65c0.02-0.23,0.07-0.45,0.13-0.68c0.06-0.25,0.1-0.5,0.14-0.76c0.07-0.49,0.19-0.98,0.2-1.48   c0.01-0.27,0.02-0.53,0.06-0.79c0.03-0.22,0.05-0.44,0.08-0.65c0.01-0.02,0.02-0.05,0.03-0.07c0.09-0.15,0.2-0.28,0.3-0.42   c0.13-0.19,0.27-0.37,0.42-0.54c0.13-0.12,0.27-0.23,0.4-0.35c0.12-0.11,0.24-0.23,0.37-0.32c0.11-0.05,0.22-0.1,0.34-0.13   c0.09-0.02,0.17-0.04,0.26-0.06c0.2-0.04,0.4-0.06,0.6-0.06c1.38,0.02,2.76,0.08,4.14,0.1c0.15,0,0.27-0.02,0.4-0.07   c0.33,0.06,0.67,0.12,1,0.19c0.72,0.16,1.45,0.32,2.19,0.44c0.34,0.06,0.68,0.09,1.02,0.15c0.37,0.07,0.73,0.16,1.09,0.25   c0.71,0.17,1.43,0.23,2.15,0.31c0.46,0.05,0.91,0.13,1.37,0.19c0.49,0.06,0.97,0.12,1.46,0.17c0.5,0.06,1,0.05,1.51,0.07   c0.22,0.01,0.45,0.01,0.68,0.02c0.01,0.02,0.02,0.05,0.03,0.07c0.11,0.15,0.31,0.28,0.5,0.29c0.38,0.01,0.77,0.03,1.16,0.03   c0.2,0,0.39,0.02,0.59,0.05c0.23,0.04,0.45,0.09,0.68,0.1c0.25,0.01,0.49,0.03,0.73,0.05c0.06,0.01,0.13,0,0.19,0   c0.01,0.25,0.02,0.51,0.05,0.76c0.03,0.26,0.04,0.52,0.05,0.79c0.01,0.25,0.05,0.49,0.06,0.74c0.01,0.16,0.01,0.32,0.02,0.48   C58.76,63.16,58.61,63.15,58.45,63.13z M58.92,63.17c0-0.01,0-0.02,0-0.02C58.92,63.16,58.92,63.16,58.92,63.17L58.92,63.17z    M59.45,58.89c-0.18-0.03-0.36-0.02-0.54-0.02c-0.16-0.01-0.32-0.03-0.48-0.04c-0.23-0.02-0.45-0.01-0.68-0.04   c-0.2-0.03-0.39-0.08-0.59-0.1c-0.25-0.03-0.5-0.03-0.75-0.02c-0.04,0-0.07,0-0.11,0c-0.08-0.1-0.17-0.19-0.29-0.23   c-0.22-0.06-0.43-0.11-0.65-0.14c-0.18-0.02-0.36-0.02-0.54-0.02c-0.35-0.01-0.7-0.04-1.05-0.05c-0.19,0-0.39,0-0.58-0.02   c-0.21-0.01-0.43-0.04-0.64-0.07c-0.36-0.05-0.72-0.09-1.08-0.13c-0.35-0.04-0.7-0.1-1.05-0.15c-0.36-0.05-0.73-0.08-1.09-0.12   c-0.37-0.04-0.73-0.1-1.09-0.17c-0.34-0.06-0.68-0.17-1.02-0.24c-0.46-0.1-0.93-0.16-1.4-0.23s-0.93-0.18-1.39-0.27   c-1.02-0.21-2.04-0.44-3.07-0.59c-0.04-0.01-0.07-0.01-0.11-0.01c-0.24,0.01-0.45,0.13-0.59,0.3c-0.4-0.01-0.8-0.01-1.2-0.03   c-0.22-0.01-0.44-0.01-0.65-0.02c-0.19,0-0.38-0.01-0.57-0.02c-0.33-0.01-0.67-0.02-0.99,0.02c-0.2,0.03-0.39,0.08-0.58,0.13   c-0.25,0.07-0.5,0.14-0.73,0.27c-0.35,0.2-0.63,0.49-0.94,0.75c-0.33,0.28-0.58,0.62-0.83,0.97c-0.09,0.12-0.17,0.24-0.25,0.36   c-0.16,0.26-0.26,0.5-0.31,0.8c-0.03,0.17-0.04,0.35-0.06,0.53c-0.03,0.2-0.06,0.4-0.07,0.6c-0.01,0.19-0.01,0.38-0.02,0.57   c-0.02,0.2-0.05,0.4-0.09,0.6c-0.07,0.37-0.12,0.74-0.18,1.11c-0.06,0.35-0.17,0.68-0.19,1.04c-0.01,0.16-0.01,0.32-0.02,0.47   c-0.01,0.14-0.04,0.29-0.07,0.43c-0.06,0.21-0.12,0.43-0.16,0.65c-0.04,0.19-0.08,0.38-0.12,0.57c-0.13,0.41-0.31,0.81-0.51,1.18   c-0.16,0.25-0.34,0.49-0.53,0.72c-0.2,0.25-0.37,0.52-0.59,0.76c-0.27,0.26-0.57,0.48-0.89,0.68c-0.49,0.27-1.02,0.46-1.56,0.61   c-0.69,0.18-1.38,0.35-2.07,0.51c-0.35,0.08-0.7,0.14-1.06,0.21c-0.39,0.08-0.77,0.13-1.17,0.14c-0.32,0-0.65,0-0.97,0   c-0.31,0.01-0.61,0.02-0.92,0.03c-0.39-0.01-0.77-0.08-1.15-0.1c-0.39-0.02-0.79-0.01-1.18-0.06c-0.39-0.05-0.78-0.16-1.17-0.22   c-0.38-0.05-0.75-0.1-1.12-0.18c-0.33-0.11-0.64-0.27-0.97-0.37c-0.4-0.12-0.81-0.19-1.21-0.28c-0.13-0.05-0.25-0.1-0.38-0.17   c-0.28-0.17-0.56-0.35-0.86-0.49c-0.27-0.13-0.55-0.23-0.81-0.36c-0.22-0.15-0.39-0.35-0.6-0.51s-0.44-0.29-0.65-0.45   c-0.02-0.03-0.05-0.06-0.07-0.09c-0.04-0.07-0.08-0.14-0.13-0.21c-0.07-0.1-0.15-0.18-0.24-0.26c-0.07-0.07-0.16-0.14-0.24-0.21   c-0.05-0.13-0.08-0.26-0.14-0.39c-0.04-0.08-0.07-0.16-0.11-0.25c-0.02-0.12-0.03-0.24-0.03-0.37c0.01-0.28,0.08-0.55,0.15-0.82   c0.07-0.23,0.17-0.45,0.28-0.66c0.18-0.28,0.41-0.53,0.64-0.77c0.63-0.63,1.33-1.2,2.1-1.67c0.38-0.22,0.78-0.42,1.17-0.61   c0.46-0.23,0.92-0.44,1.39-0.64c0.45-0.19,0.89-0.37,1.35-0.52c0.39-0.12,0.77-0.25,1.17-0.37c0.15-0.04,0.3-0.09,0.45-0.13   c0.63-0.17,1.23-0.39,1.83-0.66c0.31-0.14,0.59-0.34,0.88-0.53c0.26-0.18,0.5-0.38,0.7-0.63c0.2-0.26,0.4-0.52,0.55-0.81   c0.05-0.1,0.08-0.21,0.11-0.32c0.05-0.18,0.1-0.35,0.13-0.53c0.05-0.32-0.01-0.65-0.09-0.96c-0.05-0.18-0.1-0.36-0.19-0.53   c-0.07-0.13-0.15-0.26-0.23-0.39c-0.11-0.2-0.2-0.42-0.33-0.61c-0.13-0.21-0.37-0.35-0.58-0.5c-0.18-0.13-0.38-0.26-0.59-0.34   c-0.2-0.08-0.42-0.12-0.63-0.18c-0.29-0.09-0.57-0.2-0.87-0.24c-0.32-0.04-0.65-0.03-0.97-0.05c-0.3-0.01-0.6-0.07-0.91-0.09   c-0.33-0.02-0.67-0.01-1-0.02c-0.35-0.01-0.69-0.03-1.04-0.09c-0.31-0.05-0.61-0.09-0.92-0.12c-0.68-0.05-1.37,0.02-2.06,0.04   c-0.6-0.02-1.22-0.05-1.82-0.17c-0.31-0.06-0.61-0.13-0.92-0.19c-0.16-0.03-0.32-0.04-0.48-0.04c-0.19-0.04-0.39-0.03-0.59-0.02   c-0.19,0.01-0.4,0.15-0.51,0.3c-0.12,0.16-0.18,0.37-0.15,0.57c0.03,0.2,0.14,0.38,0.3,0.51c0.17,0.13,0.36,0.16,0.57,0.15   c0.1,0,0.21-0.01,0.31-0.01c0.37,0.02,0.72,0.11,1.08,0.18c0.41,0.09,0.83,0.13,1.25,0.17c0.48,0.04,0.95,0.06,1.43,0.04   c0.36-0.01,0.72-0.04,1.09-0.04c0.41,0.01,0.81,0.06,1.22,0.13c0.48,0.08,0.97,0.09,1.45,0.09c0.23,0,0.46,0.01,0.69,0.02   c0.22,0.02,0.44,0.05,0.65,0.07c0.43,0.03,0.87,0,1.3,0.09c0.11,0.03,0.22,0.07,0.33,0.11c0.15,0.05,0.31,0.09,0.47,0.13   c0.08,0.03,0.16,0.06,0.24,0.09c0.15,0.09,0.29,0.19,0.42,0.3c0.05,0.09,0.09,0.19,0.14,0.28c0.07,0.13,0.14,0.25,0.22,0.37   c0.05,0.1,0.09,0.2,0.13,0.31c0.03,0.11,0.05,0.23,0.06,0.34c-0.01,0.1-0.03,0.19-0.05,0.29c-0.02,0.08-0.05,0.15-0.08,0.23   c-0.06,0.09-0.13,0.18-0.2,0.28c-0.07,0.09-0.14,0.19-0.22,0.27c-0.21,0.19-0.46,0.35-0.7,0.5c-0.24,0.13-0.5,0.24-0.76,0.34   c-0.34,0.13-0.68,0.26-1.03,0.36c0.01,0,0.01,0,0.02,0c-0.06,0.02-0.11,0.03-0.16,0.05c-0.08-0.29-0.33-0.52-0.64-0.57   c-0.09-0.01-0.18-0.03-0.26-0.05c-0.22-0.06-0.44-0.13-0.66-0.17c-0.24-0.04-0.49-0.05-0.74-0.08c-0.22-0.03-0.45-0.08-0.67-0.13   c-0.27-0.06-0.55-0.1-0.83-0.13c-0.22-0.03-0.44-0.05-0.66-0.07c-0.31-0.03-0.63-0.03-0.95-0.03c-0.49,0-0.98,0.03-1.46,0.04   c-0.45-0.01-0.91-0.01-1.36-0.01c-0.42,0-0.85,0.01-1.27,0.02c-0.22-0.01-0.43-0.03-0.64-0.05c-0.05-0.21-0.1-0.43-0.16-0.64   c-0.11-0.37-0.24-0.75-0.36-1.12c-0.14-0.42-0.27-0.84-0.4-1.26c-0.13-0.41-0.29-0.8-0.42-1.21c-0.04-0.16-0.07-0.33-0.1-0.5   c0.03-0.03,0.06-0.04,0.08-0.07c0.14-0.15,0.27-0.29,0.41-0.43c0.25-0.25,0.52-0.5,0.8-0.72c0.3-0.24,0.6-0.47,0.89-0.72   c0.6-0.52,1.19-1.04,1.81-1.55c0.62-0.51,1.24-1.01,1.86-1.52c0.61-0.49,1.2-1,1.81-1.5c0.63-0.51,1.25-1.03,1.86-1.55   c0.63-0.53,1.27-1.03,1.92-1.54c1.27-1,2.5-2.06,3.82-3c1.37-0.98,2.75-1.94,4.11-2.92s2.75-1.9,4.1-2.89   c1.31-0.95,2.66-1.85,3.96-2.81c0.65-0.47,1.27-0.96,1.94-1.41c0.66-0.44,1.34-0.85,1.99-1.3c0.83-0.57,1.66-1.14,2.52-1.66   c0.03-0.02,0.06-0.04,0.1-0.06c0.04-0.03,0.09-0.05,0.13-0.08c0.01-0.01,0.02-0.01,0.03-0.02c0.14-0.09,0.29-0.17,0.43-0.26   c0.19-0.12,0.37-0.23,0.56-0.35c0.33-0.21,0.67-0.42,1-0.64c0.26-0.17,0.52-0.34,0.79-0.51c0.09-0.05,0.18-0.11,0.27-0.17   c0.06,0,0.11,0.02,0.17,0.01c0.22-0.05,0.44-0.1,0.66-0.13c0.19-0.02,0.37-0.03,0.56-0.04c0.74,0.01,1.47,0.07,2.21,0.14   c0.8,0.07,1.6,0.12,2.4,0.14c0.83,0.02,1.67,0.01,2.5,0.02c0.81,0.01,1.62,0.05,2.43,0.09s1.61,0.06,2.42,0.08   c0.82,0.02,1.65,0.05,2.47,0.07c0.81,0.02,1.63,0.06,2.44,0.08c0.81,0.02,1.61,0.04,2.42,0.07c0.84,0.03,1.67,0.07,2.51,0.13   c0.8,0.06,1.61,0.14,2.41,0.23c0.81,0.09,1.63,0.17,2.45,0.23c0.77,0.06,1.55,0.12,2.32,0.22c0.74,0.09,1.49,0.19,2.22,0.31   c0.37,0.06,0.74,0.13,1.11,0.2c0.37,0.07,0.75,0.12,1.12,0.18c0.72,0.11,1.44,0.13,2.16,0.22c0.39,0.05,0.78,0.12,1.17,0.14   c0.35,0.02,0.7,0.04,1.05,0.07c0.32,0.02,0.65,0.07,0.97,0.12c0.1,0.02,0.21,0.02,0.31,0.03c0,0.1,0,0.19-0.01,0.29   c-0.02,0.41,0,0.82,0.01,1.22c0,0.04,0,0.09,0,0.13c0,0.6,0.04,1.2,0.05,1.81c0,0.11-0.01,0.21-0.02,0.32c0,0,0,0,0,0.01   c-0.03,0.02-0.06,0.04-0.08,0.06c-0.2,0.26-0.43,0.5-0.63,0.76c-0.11,0.14-0.2,0.29-0.3,0.44c-0.12,0.18-0.26,0.35-0.41,0.51   c-0.13,0.13-0.27,0.26-0.39,0.39c-0.1,0.11-0.19,0.23-0.28,0.35c-0.25,0.31-0.52,0.6-0.78,0.89c-0.29,0.32-0.54,0.66-0.8,1.01   c-0.19,0.27-0.4,0.52-0.63,0.77c-0.21,0.2-0.42,0.39-0.63,0.6c-0.15,0.15-0.26,0.29-0.29,0.5c-0.02,0.15,0.02,0.3,0.09,0.43   c-0.05,0.03-0.1,0.06-0.16,0.09c-0.27,0.16-0.54,0.31-0.83,0.44c-0.3,0.14-0.6,0.29-0.91,0.39c-0.05,0.01-0.11,0.02-0.16,0.03   c-0.21-0.02-0.42-0.06-0.63-0.1c0-0.02,0.01-0.05,0.01-0.07c0.04-0.11,0.08-0.21,0.14-0.31c0.13-0.21,0.26-0.41,0.38-0.62   c0.11-0.19,0.21-0.38,0.31-0.57c0.18-0.28,0.41-0.51,0.61-0.77c0.23-0.3,0.43-0.62,0.66-0.92c0.21-0.27,0.47-0.51,0.68-0.78   c0.22-0.28,0.44-0.57,0.65-0.85c0.45-0.6,0.93-1.16,1.37-1.76c0.44-0.6,0.84-1.23,1.3-1.81c0.29-0.36,0.59-0.71,0.87-1.07   c0.26-0.33,0.18-0.83-0.15-1.08c-0.14-0.11-0.3-0.15-0.46-0.15c-0.24-0.03-0.47,0.07-0.63,0.27c-0.25,0.31-0.51,0.62-0.77,0.93   c-0.22,0.28-0.43,0.56-0.63,0.85c-0.44,0.63-0.89,1.26-1.37,1.86c-0.45,0.57-0.89,1.15-1.33,1.72c-0.2,0.27-0.43,0.51-0.66,0.76   c-0.25,0.28-0.45,0.61-0.67,0.91c-0.23,0.31-0.5,0.59-0.72,0.92c-0.12,0.18-0.21,0.38-0.31,0.57c-0.05,0.1-0.11,0.19-0.16,0.29   c-0.09,0.15-0.18,0.29-0.27,0.44c-0.17,0.28-0.3,0.57-0.37,0.89c-0.05,0.26-0.07,0.53-0.03,0.79c0.03,0.15,0.07,0.3,0.15,0.43   c0.05,0.12,0.13,0.23,0.24,0.31c0.11,0.09,0.26,0.15,0.39,0.19c0.19,0.06,0.39,0.1,0.59,0.14c0.15,0.03,0.3,0.06,0.45,0.09   c0.35,0.06,0.68,0,1.02-0.1c0.28-0.08,0.54-0.21,0.8-0.32c0.25-0.11,0.5-0.22,0.73-0.35c0.25-0.14,0.5-0.29,0.75-0.44   c0.53-0.3,1.08-0.56,1.63-0.82c0.53-0.26,1.05-0.48,1.61-0.64c0.1-0.03,0.19-0.06,0.29-0.08c0.88-0.23,1.78-0.34,2.69-0.37   c0.3,0.01,0.59,0.07,0.89,0.14c0.29,0.06,0.59,0.1,0.87,0.17c0.08,0.03,0.15,0.05,0.22,0.09c0.14,0.09,0.29,0.17,0.43,0.26   c0.14,0.08,0.28,0.15,0.41,0.22c0.06,0.03,0.11,0.07,0.17,0.11c0.03,0.03,0.05,0.07,0.08,0.11c0.09,0.15,0.18,0.31,0.29,0.45   c0.11,0.13,0.23,0.25,0.35,0.37c0.02,0.02,0.04,0.05,0.06,0.07c0.06,0.14,0.11,0.29,0.16,0.44c0.05,0.16,0.12,0.32,0.17,0.49   c0.07,0.31,0.11,0.63,0.12,0.95c0,0.09-0.01,0.19-0.03,0.28c-0.07,0.22-0.16,0.43-0.23,0.65c-0.11,0.32-0.24,0.63-0.41,0.93   c0.03-0.06,0.07-0.12,0.1-0.17c-0.22,0.37-0.4,0.77-0.61,1.15c-0.22,0.37-0.46,0.73-0.68,1.1c-0.24,0.42-0.44,0.86-0.67,1.28   c-0.14,0.23-0.29,0.46-0.44,0.69c-0.16,0.25-0.3,0.51-0.46,0.77c-0.32,0.51-0.68,0.99-1.03,1.48c-0.17,0.24-0.33,0.49-0.5,0.73   c-0.16,0.23-0.34,0.43-0.53,0.64c-0.37,0.41-0.7,0.85-1.07,1.25c-0.22,0.22-0.46,0.43-0.69,0.64s-0.46,0.41-0.73,0.57   c-0.42,0.23-0.84,0.46-1.3,0.6c-0.24,0.06-0.49,0.1-0.74,0.14c-0.26,0.04-0.52,0.09-0.78,0.1c-0.17-0.01-0.35-0.02-0.52-0.03   c-0.22-0.01-0.44,0-0.65-0.02c-0.22-0.02-0.44-0.06-0.67-0.08c-0.26-0.02-0.52,0-0.78,0c-0.07,0-0.15-0.01-0.22-0.02   c-0.26-0.09-0.5-0.22-0.76-0.31s-0.53-0.15-0.79-0.26c-0.03-0.02-0.07-0.05-0.1-0.08c-0.04-0.05-0.09-0.1-0.13-0.14   c-0.14-0.16-0.3-0.3-0.48-0.42c-0.19-0.14-0.4-0.25-0.61-0.36c-0.03-0.02-0.05-0.04-0.08-0.05c-0.18-0.13-0.34-0.27-0.51-0.42   c-0.2-0.18-0.43-0.32-0.64-0.48c-0.19-0.15-0.34-0.34-0.53-0.48s-0.41-0.24-0.62-0.35c-0.04-0.03-0.07-0.06-0.11-0.09   c-0.09-0.09-0.18-0.18-0.27-0.27c-0.17-0.16-0.38-0.27-0.6-0.34c-0.2-0.06-0.4-0.11-0.58-0.2c-0.18-0.11-0.36-0.22-0.57-0.29   c-0.24-0.08-0.47-0.17-0.71-0.22c-0.19-0.04-0.39-0.01-0.58,0.03c-0.15,0.04-0.32,0.08-0.47,0.14c-0.18,0.07-0.37,0.14-0.53,0.24   c-0.42,0.25-0.79,0.56-1.2,0.83c-0.22,0.14-0.4,0.3-0.58,0.48c-0.12,0.12-0.23,0.25-0.34,0.37c-0.19,0.18-0.38,0.34-0.56,0.53   c-0.19,0.21-0.37,0.43-0.57,0.64c-0.07,0.08-0.14,0.16-0.21,0.23c-0.03,0.03-0.07,0.06-0.1,0.1c-0.22,0.22-0.45,0.43-0.66,0.66   c-0.22,0.23-0.43,0.48-0.63,0.73c-0.46,0.54-0.97,1.04-1.43,1.57c-0.49,0.56-0.97,1.13-1.45,1.7   C60.33,57.89,59.89,58.39,59.45,58.89z M91.94,47.51c-0.02,0.26-0.02,0.51-0.03,0.77c-0.01,0.21,0,0.44-0.03,0.65   c-0.01,0.02-0.02,0.04-0.03,0.06c0.01-0.02,0.02-0.03,0.03-0.05c-0.26,0.45-0.44,0.94-0.67,1.4c-0.15,0.3-0.28,0.61-0.44,0.9   c-0.14,0.27-0.29,0.54-0.44,0.81c-0.12,0.21-0.25,0.41-0.38,0.62c-0.15,0.26-0.29,0.52-0.43,0.78c-0.2,0.33-0.44,0.63-0.68,0.93   c-0.14,0.17-0.29,0.34-0.42,0.52c-0.12,0.16-0.25,0.32-0.39,0.48c-0.05,0.04-0.1,0.09-0.15,0.13c-0.16,0.13-0.26,0.32-0.29,0.51   c-0.31,0.35-0.61,0.7-0.92,1.04c-0.32,0.31-0.65,0.59-1.01,0.86c-0.17,0.13-0.35,0.23-0.53,0.34c-0.17,0.1-0.33,0.21-0.5,0.32   c-0.44,0.24-0.91,0.44-1.38,0.61c-0.22,0.08-0.44,0.15-0.66,0.23c-0.22,0.07-0.45,0.16-0.67,0.23c-0.74,0.18-1.51,0.2-2.27,0.22   c-0.45-0.01-0.91-0.08-1.35-0.18c-0.43-0.13-0.86-0.28-1.28-0.45c-0.39-0.15-0.8-0.25-1.17-0.45c-0.18-0.11-0.36-0.2-0.55-0.28   c-0.16-0.06-0.33-0.12-0.48-0.2c-0.15-0.1-0.28-0.22-0.43-0.33c-0.17-0.13-0.35-0.23-0.51-0.37c-0.17-0.17-0.35-0.34-0.54-0.5   c-0.2-0.17-0.42-0.31-0.65-0.45c-0.3-0.19-0.59-0.38-0.93-0.5c-0.36-0.12-0.76-0.21-1.14-0.25c-0.3-0.03-0.61-0.03-0.92-0.04   c-0.38-0.01-0.78-0.06-1.15,0.03c-0.29,0.07-0.58,0.17-0.86,0.28c-0.02-0.02-0.05-0.05-0.07-0.07c0.01,0.03,0.02,0.05,0.04,0.08   c-0.08,0.01-0.16,0.02-0.23,0.05c-0.3,0.11-0.59,0.18-0.86,0.38c-0.17,0.12-0.32,0.26-0.47,0.4c-0.27,0.25-0.53,0.49-0.81,0.73   c-0.32,0.27-0.61,0.58-0.93,0.85c-0.21,0.17-0.41,0.34-0.59,0.54c-0.15,0.17-0.3,0.34-0.46,0.5c-0.13,0.13-0.27,0.25-0.4,0.37   c-0.22,0.21-0.41,0.42-0.62,0.64c-0.01,0.01-0.01,0.01-0.02,0.02c-0.31,0.3-0.63,0.58-0.93,0.89c-0.05,0.05-0.1,0.1-0.15,0.15   c0.01-0.01,0.01-0.01,0.02-0.02c-0.07,0.07-0.14,0.14-0.21,0.22c-0.18,0.18-0.37,0.36-0.58,0.52c-0.01-0.2-0.04-0.4-0.05-0.61   c-0.02-0.26-0.02-0.52-0.05-0.79s-0.04-0.53-0.05-0.8c0.07-0.05,0.14-0.11,0.21-0.18c0.45-0.52,0.91-1.04,1.36-1.56   c0.44-0.51,0.86-1.04,1.3-1.54c0.22-0.24,0.43-0.48,0.65-0.72c0.01-0.01,0.02-0.03,0.03-0.04c0.11-0.16,0.26-0.3,0.41-0.43   c0.09-0.1,0.18-0.2,0.28-0.29c0.39-0.41,0.74-0.85,1.12-1.26c0.14-0.13,0.28-0.27,0.41-0.4c0.01-0.01,0.02-0.02,0.03-0.02   c0.04-0.04,0.09-0.08,0.12-0.13c0.01-0.01,0.02-0.02,0.02-0.02c0.09-0.09,0.18-0.19,0.27-0.29c0.18-0.2,0.34-0.4,0.52-0.59   c0.13-0.12,0.26-0.24,0.39-0.36c0.17-0.16,0.32-0.33,0.47-0.5c0.2-0.18,0.43-0.31,0.65-0.47c0.23-0.16,0.45-0.34,0.68-0.49   c0.18-0.1,0.38-0.17,0.58-0.23c0.03-0.01,0.06-0.01,0.1-0.02c0.01,0,0.02,0,0.03,0c0.05,0.02,0.11,0.04,0.17,0.06   c0.12,0.04,0.25,0.08,0.36,0.13c0.16,0.1,0.31,0.2,0.48,0.27c0.2,0.08,0.41,0.12,0.61,0.2c0.03,0.02,0.05,0.04,0.08,0.07   c0.02,0.02,0.04,0.04,0.06,0.07c0.17,0.18,0.32,0.3,0.54,0.42c0.1,0.05,0.2,0.1,0.3,0.15c0.25,0.17,0.44,0.4,0.68,0.58   c0.14,0.1,0.28,0.2,0.42,0.3s0.26,0.22,0.38,0.34c0.14,0.13,0.29,0.22,0.44,0.32c0.1,0.07,0.21,0.12,0.32,0.18   c0.02,0.01,0.05,0.03,0.07,0.04c0.13,0.08,0.27,0.17,0.39,0.27c0.23,0.25,0.47,0.5,0.78,0.65c0.26,0.12,0.54,0.18,0.82,0.27   s0.54,0.24,0.82,0.34c0.22,0.07,0.43,0.11,0.65,0.12c0.18,0,0.37,0,0.55-0.01c0.12,0,0.23,0.01,0.34,0.02   c0.19,0.02,0.37,0.05,0.57,0.07c0.32,0.02,0.63,0,0.95,0.03c0.41,0.03,0.82-0.02,1.22-0.08c0.42-0.07,0.83-0.15,1.24-0.27   c0.37-0.11,0.74-0.3,1.08-0.48c0.35-0.19,0.7-0.39,1.01-0.65c0.3-0.25,0.58-0.52,0.86-0.79c0.3-0.28,0.57-0.59,0.83-0.91   c0.37-0.46,0.81-0.88,1.15-1.36c0.19-0.27,0.37-0.55,0.56-0.82c0.19-0.27,0.4-0.54,0.59-0.82c0.37-0.52,0.67-1.09,1.02-1.62   c0.22-0.33,0.42-0.67,0.6-1.03c0.13-0.27,0.26-0.53,0.4-0.79c0.2-0.33,0.4-0.64,0.6-0.97c0.06-0.1,0.11-0.2,0.17-0.3   c-0.04,0.42,0.01,0.84,0.03,1.26C92.03,46.47,91.97,46.99,91.94,47.51z"/><path d="M61.27,61.62c0.02-0.02,0.04-0.04,0.07-0.06c0.02-0.03,0.05-0.05,0.07-0.08C61.36,61.53,61.32,61.57,61.27,61.62z"/></g></svg>